<svg width="18" height="16" viewBox="0 0 18 16" fill="none" xmlns="http://www.w3.org/2000/svg">
<path d="M17.3098 10.9975L11.2498 1.4275C10.7398 0.6925 9.89227 0.25 8.99977 0.25C8.10727 0.25 7.25977 0.685 6.72727 1.45L0.697267 10.9825C-0.0677328 12.0775 -0.210233 13.39 0.322267 14.4025C0.847267 15.415 1.94977 15.9925 3.32977 15.9925H14.6698C16.0573 15.9925 17.1523 15.415 17.6773 14.4025C18.2023 13.39 18.0598 12.085 17.3098 10.9975ZM8.24977 4.75C8.24977 4.3375 8.58727 4 8.99977 4C9.41227 4 9.74977 4.3375 9.74977 4.75V9.25C9.74977 9.6625 9.41227 10 8.99977 10C8.58727 10 8.24977 9.6625 8.24977 9.25V4.75ZM8.99977 13.75C8.37727 13.75 7.87477 13.2475 7.87477 12.625C7.87477 12.0025 8.37727 11.5 8.99977 11.5C9.62227 11.5 10.1248 12.0025 10.1248 12.625C10.1248 13.2475 9.62227 13.75 8.99977 13.75Z" fill="#FFD600"/>
</svg>
