<svg width="18" height="18" viewBox="0 0 18 18" fill="none" xmlns="http://www.w3.org/2000/svg">
<path d="M17.0707 8.24903H12V2.99902H12.7875C13.3677 2.99955 13.9354 3.16802 14.422 3.4841C14.9085 3.80018 15.2932 4.25036 15.5295 4.78027L17.0707 8.24903ZM18 11.2955V14.249H0V5.24903C0 4.65229 0.237053 4.07999 0.65901 3.65803C1.08097 3.23608 1.65326 2.99902 2.25 2.99902H7.5L8.06775 0.726525C8.11958 0.518491 8.23951 0.333772 8.40844 0.201764C8.57737 0.0697569 8.78561 -0.00195312 9 -0.00195312C9.21439 -0.00195312 9.42263 0.0697569 9.59156 0.201764C9.76049 0.333772 9.88042 0.518491 9.93225 0.726525L10.5 2.99902V9.74903H17.7203C17.9042 10.2439 17.9989 10.7675 18 11.2955ZM7.5 8.24903H6V6.74903H4.5V8.24903H3V9.74903H4.5V11.249H6V9.74903H7.5V8.24903ZM2.2935 15.749C2.26603 15.8722 2.25145 15.9979 2.25 16.124C2.25 16.6213 2.44754 17.0982 2.79917 17.4499C3.15081 17.8015 3.62772 17.999 4.125 17.999C4.62228 17.999 5.09919 17.8015 5.45083 17.4499C5.80246 17.0982 6 16.6213 6 16.124C5.99855 15.9979 5.98397 15.8722 5.9565 15.749H2.2935ZM12.7935 15.749C12.766 15.8722 12.7514 15.9979 12.75 16.124C12.75 16.6213 12.9475 17.0982 13.2992 17.4499C13.6508 17.8015 14.1277 17.999 14.625 17.999C15.1223 17.999 15.5992 17.8015 15.9508 17.4499C16.3025 17.0982 16.5 16.6213 16.5 16.124C16.4986 15.9979 16.484 15.8722 16.4565 15.749H12.7935Z" fill="#F5365C"/>
</svg>
