<svg width="18" height="18" viewBox="0 0 18 18" fill="none" xmlns="http://www.w3.org/2000/svg">
<g clip-path="url(#clip0_400_444)">
<path d="M11.6081 13.9577C11.6081 12.9955 11.0021 12.436 9.84033 11.4497C9.57783 11.2247 9.29433 10.9862 9.00183 10.7207C8.66808 11.0275 8.35083 11.2975 8.05983 11.5457C6.90033 12.5252 6.39258 13.0045 6.39258 13.9577C6.39258 14.6493 6.66732 15.3126 7.15637 15.8017C7.64542 16.2907 8.30871 16.5655 9.00033 16.5655C9.69195 16.5655 10.3552 16.2907 10.8443 15.8017C11.3333 15.3126 11.6081 14.6493 11.6081 13.9577Z" fill="#F5365C"/>
<path d="M12.3064 3.02625C11.4064 2.262 10.4764 1.47225 9.53594 0.5325L9.00044 0L8.47544 0.53325C6.78494 2.22975 5.98544 4.83525 5.63894 6.39825C5.37305 5.98654 5.17573 5.53442 5.05469 5.0595L4.73444 3.83175L3.80969 4.6995C2.19044 6.2205 1.10969 7.72875 1.10969 10.1437C1.09412 11.8864 1.66136 13.5843 2.72128 14.9676C3.7812 16.3509 5.27301 17.3404 6.95969 17.7787C7.38349 17.8861 7.81507 17.9601 8.25044 18C7.30639 17.8241 6.45351 17.3238 5.83928 16.5856C5.22505 15.8474 4.8881 14.9178 4.88669 13.9575C4.88669 12.27 5.90444 11.4075 7.08269 10.401C7.50344 10.0433 7.98269 9.6375 8.46644 9.15075L9.00044 8.61975L9.53144 9.15075C9.96344 9.58275 10.3954 9.94875 10.8132 10.3043C11.9952 11.307 13.1112 12.2543 13.1112 13.9575C13.11 14.914 12.7757 15.8402 12.1659 16.5771C11.556 17.314 10.7086 17.8155 9.76919 17.9955C11.7196 17.8063 13.5296 16.8973 14.8462 15.4459C16.1628 13.9946 16.8916 12.1048 16.8904 10.1453C16.8904 6.91875 14.7657 5.115 12.3064 3.02625Z" fill="#F5365C"/>
</g>
<defs>
<clipPath id="clip0_400_444">
<rect width="18" height="18" fill="white"/>
</clipPath>
</defs>
</svg>
