<svg width="20" height="20" viewBox="0 0 20 20" fill="none" xmlns="http://www.w3.org/2000/svg">
<path d="M6.66699 2.29102H4.16699C3.13146 2.29102 2.29199 3.13048 2.29199 4.16602V6.66602C2.29199 7.70155 3.13146 8.54102 4.16699 8.54102H6.66699C7.70253 8.54102 8.54199 7.70155 8.54199 6.66602V4.16602C8.54199 3.13048 7.70253 2.29102 6.66699 2.29102Z" stroke="#C707A8" stroke-width="1.5"/>
<path d="M15.833 2.29102H13.333C12.2975 2.29102 11.458 3.13048 11.458 4.16602V6.66602C11.458 7.70155 12.2975 8.54102 13.333 8.54102H15.833C16.8685 8.54102 17.708 7.70155 17.708 6.66602V4.16602C17.708 3.13048 16.8685 2.29102 15.833 2.29102Z" stroke="#C707A8" stroke-width="1.5"/>
<path d="M15.833 11.459H13.333C12.2975 11.459 11.458 12.2985 11.458 13.334V15.834C11.458 16.8695 12.2975 17.709 13.333 17.709H15.833C16.8685 17.709 17.708 16.8695 17.708 15.834V13.334C17.708 12.2985 16.8685 11.459 15.833 11.459Z" stroke="#C707A8" stroke-width="1.5"/>
<path d="M6.66699 11.459H4.16699C3.13146 11.459 2.29199 12.2985 2.29199 13.334V15.834C2.29199 16.8695 3.13146 17.709 4.16699 17.709H6.66699C7.70253 17.709 8.54199 16.8695 8.54199 15.834V13.334C8.54199 12.2985 7.70253 11.459 6.66699 11.459Z" stroke="#C707A8" stroke-width="1.5"/>
</svg>
