<svg width="19" height="19" viewBox="0 0 19 19" fill="none" xmlns="http://www.w3.org/2000/svg">
<g clip-path="url(#clip0_550_16601)">
<path d="M10.0006 0.03125C11.9851 0.0334333 13.8878 0.822707 15.2911 2.22592C16.6945 3.62914 17.4839 5.53171 17.4863 7.51625C17.4863 9.44375 15.9938 12.4603 13.0501 16.4818C12.6996 16.9618 12.2408 17.3524 11.7109 17.6217C11.181 17.8909 10.595 18.0313 10.0006 18.0313C9.40618 18.0313 8.82019 17.8909 8.29028 17.6217C7.76037 17.3524 7.30152 16.9618 6.95108 16.4818C4.00733 12.4603 2.51483 9.44375 2.51483 7.51625C2.51721 5.53171 3.30667 3.62914 4.71003 2.22592C6.11339 0.822707 8.01603 0.0334333 10.0006 0.03125ZM10.0006 10.4998C10.5939 10.4998 11.1739 10.3238 11.6673 9.99416C12.1606 9.66452 12.5452 9.19598 12.7722 8.6478C12.9993 8.09962 13.0587 7.49642 12.9429 6.91448C12.8272 6.33254 12.5415 5.79799 12.1219 5.37843C11.7023 4.95887 11.1678 4.67315 10.5858 4.55739C10.0039 4.44164 9.40071 4.50105 8.85253 4.72811C8.30435 4.95517 7.83581 5.33969 7.50617 5.83304C7.17653 6.32639 7.00058 6.90641 7.00058 7.49975C7.00058 8.2954 7.31665 9.05846 7.87926 9.62107C8.44187 10.1837 9.20493 10.4998 10.0006 10.4998Z" fill="#FF1744"/>
</g>
<defs>
<clipPath id="clip0_550_16601">
<rect width="18" height="18" fill="white" transform="matrix(-1 0 0 1 19 0)"/>
</clipPath>
</defs>
</svg>
