<svg width="18" height="18" viewBox="0 0 18 18" fill="none" xmlns="http://www.w3.org/2000/svg">
<path d="M2.25 16.4995C2.05811 16.4995 1.86621 16.4263 1.71973 16.2798C1.42676 15.9868 1.42676 15.5122 1.71973 15.2192L6.29626 10.6416C6.58923 10.3486 7.06384 10.3486 7.35681 10.6416C7.64978 10.9346 7.64978 11.4092 7.35681 11.7021L2.78027 16.2798C2.63379 16.4263 2.44189 16.4995 2.25 16.4995Z" fill="#CFC4C5"/>
<path d="M13.7218 7.45996L10.5398 4.27832C10.2468 3.98535 9.7722 3.98535 9.47924 4.27832C8.63878 5.11841 6.02147 7.38672 4.02855 7.78516C3.75756 7.83936 3.5382 8.03857 3.458 8.30298C3.3778 8.56812 3.44994 8.85523 3.6455 9.05078L8.9486 14.3542C9.09142 14.4971 9.28295 14.574 9.47887 14.574C9.55138 14.574 9.62462 14.5637 9.69603 14.5417C9.9608 14.4619 10.16 14.2422 10.2142 13.9712C10.6936 11.5754 13.6918 8.55054 13.7222 8.52051C14.0144 8.22754 14.0148 7.75293 13.7218 7.45996Z" fill="#FFB4A2"/>
<path d="M15.844 5.33978L12.6616 2.15741C11.8135 1.30927 10.3278 1.31 9.48035 2.15668C9.05627 2.58075 8.82263 3.14545 8.82227 3.74823C8.82227 4.35028 9.05591 4.91571 9.47961 5.33905L12.662 8.52142C13.0861 8.9455 13.6508 9.17841 14.2528 9.17841C14.8549 9.17841 15.4199 8.9455 15.844 8.52142C16.2677 8.09808 16.5013 7.53265 16.5013 6.9306C16.5013 6.32855 16.2677 5.76312 15.844 5.33978Z" fill="#FFB4A2"/>
</svg>
