<svg width="69" height="69" viewBox="0 0 69 69" fill="none" xmlns="http://www.w3.org/2000/svg">
<g clip-path="url(#clip0_1057_9050)">
<path d="M64.7653 31.8123H45.75V12.1248H48.7031C50.8789 12.1267 53.0077 12.7585 54.8323 13.9438C56.6569 15.1291 58.0994 16.8173 58.9856 18.8044L64.7653 31.8123ZM68.25 43.2366V54.3123H0.75V20.5623C0.75 18.3245 1.63895 16.1784 3.22129 14.596C4.80362 13.0137 6.94974 12.1248 9.1875 12.1248H28.875L31.0041 3.60289C31.1984 2.82276 31.6482 2.13006 32.2817 1.63503C32.9151 1.14001 33.696 0.871094 34.5 0.871094C35.304 0.871094 36.0849 1.14001 36.7183 1.63503C37.3518 2.13006 37.8016 2.82276 37.9959 3.60289L40.125 12.1248V37.4373H67.2009C67.8908 39.2931 68.246 41.2567 68.25 43.2366ZM28.875 31.8123H23.25V26.1873H17.625V31.8123H12V37.4373H17.625V43.0623H23.25V37.4373H28.875V31.8123ZM9.35063 59.9373C9.2476 60.3991 9.19293 60.8704 9.1875 61.3435C9.1875 63.2083 9.92829 64.9967 11.2469 66.3154C12.5655 67.634 14.3539 68.3748 16.2188 68.3748C18.0836 68.3748 19.872 67.634 21.1906 66.3154C22.5092 64.9967 23.25 63.2083 23.25 61.3435C23.2446 60.8704 23.1899 60.3991 23.0869 59.9373H9.35063ZM48.7256 59.9373C48.6226 60.3991 48.5679 60.8704 48.5625 61.3435C48.5625 63.2083 49.3033 64.9967 50.6219 66.3154C51.9405 67.634 53.7289 68.3748 55.5938 68.3748C57.4586 68.3748 59.247 67.634 60.5656 66.3154C61.8842 64.9967 62.625 63.2083 62.625 61.3435C62.6196 60.8704 62.5649 60.3991 62.4619 59.9373H48.7256Z" fill="#F5365C"/>
</g>
<defs>
<clipPath id="clip0_1057_9050">
<rect width="67.5" height="67.5" fill="white" transform="translate(0.75 0.875)"/>
</clipPath>
</defs>
</svg>
