<svg width="141" height="140" viewBox="0 0 141 140" fill="none" xmlns="http://www.w3.org/2000/svg">
<path d="M133.691 58.858L134.421 64.4079L134.665 70.0004L134.421 75.5929L133.691 81.1428L132.479 86.608L130.796 91.9467L128.653 97.1184L126.069 102.084L123.061 106.805L119.653 111.246L115.871 115.373L111.744 119.155L107.303 122.563L102.582 125.57L97.6167 128.155L92.445 130.297L87.1063 131.981L81.6411 133.192L76.0912 133.923L70.4987 134.167L64.9062 133.923L59.3563 133.192L53.8911 131.981L48.5524 130.297L43.3807 128.155L38.4154 125.57L33.6942 122.563L29.2532 119.155L25.126 115.373L21.3442 111.246L17.9364 106.805L14.9287 102.084L12.344 97.1184L10.2018 91.9467L8.51846 86.608L7.30686 81.1428L6.57621 75.5929L6.33203 70.0004L6.57621 64.4079L7.30686 58.858L8.51846 53.3929L10.2018 48.0541L12.344 42.8824L14.9287 37.9171L17.9364 33.1959L21.3442 28.7549L25.126 24.6277L29.2532 20.8459L33.6942 17.4382L38.4154 14.4305L43.3807 11.8457L48.5524 9.70349L53.8911 8.02019L59.3563 6.80859" stroke="#F0EFFF" stroke-width="10" stroke-linecap="round"/>
<path d="M81.6406 6.80859L87.1058 8.02019L92.4445 9.70349L97.6162 11.8457L102.582 14.4305L107.303 17.4382L111.744 20.8459L115.871 24.6277L119.653 28.7549L123.06 33.1959L126.068 37.9171" stroke="#5E72E4" stroke-width="10" stroke-linecap="round"/>
</svg>
