<svg width="69" height="60" viewBox="0 0 69 60" fill="none" xmlns="http://www.w3.org/2000/svg">
<path d="M65.6626 40.8656L42.9376 4.97813C41.0251 2.22188 37.847 0.5625 34.5001 0.5625C31.1532 0.5625 27.9751 2.19375 25.9782 5.0625L3.36573 40.8094C0.496978 44.9156 -0.0373966 49.8375 1.95948 53.6344C3.92823 57.4313 8.0626 59.5969 13.2376 59.5969H55.7626C60.9657 59.5969 65.072 57.4313 67.0407 53.6344C69.0095 49.8375 68.4751 44.9438 65.6626 40.8656ZM31.6876 17.4375C31.6876 15.8906 32.9532 14.625 34.5001 14.625C36.047 14.625 37.3126 15.8906 37.3126 17.4375V34.3125C37.3126 35.8594 36.047 37.125 34.5001 37.125C32.9532 37.125 31.6876 35.8594 31.6876 34.3125V17.4375ZM34.5001 51.1875C32.1657 51.1875 30.2814 49.3031 30.2814 46.9688C30.2814 44.6344 32.1657 42.75 34.5001 42.75C36.8345 42.75 38.7189 44.6344 38.7189 46.9688C38.7189 49.3031 36.8345 51.1875 34.5001 51.1875Z" fill="#FFD600"/>
</svg>
