<svg width="20" height="20" viewBox="0 0 20 20" fill="none" xmlns="http://www.w3.org/2000/svg">
<path d="M6.66602 2.29102H4.16602C3.13048 2.29102 2.29102 3.13048 2.29102 4.16602V6.66602C2.29102 7.70155 3.13048 8.54102 4.16602 8.54102H6.66602C7.70155 8.54102 8.54102 7.70155 8.54102 6.66602V4.16602C8.54102 3.13048 7.70155 2.29102 6.66602 2.29102Z" stroke="#C707A8" stroke-width="1.5"/>
<path d="M15.834 2.29102H13.334C12.2985 2.29102 11.459 3.13048 11.459 4.16602V6.66602C11.459 7.70155 12.2985 8.54102 13.334 8.54102H15.834C16.8695 8.54102 17.709 7.70155 17.709 6.66602V4.16602C17.709 3.13048 16.8695 2.29102 15.834 2.29102Z" stroke="#C707A8" stroke-width="1.5"/>
<path d="M15.834 11.459H13.334C12.2985 11.459 11.459 12.2985 11.459 13.334V15.834C11.459 16.8695 12.2985 17.709 13.334 17.709H15.834C16.8695 17.709 17.709 16.8695 17.709 15.834V13.334C17.709 12.2985 16.8695 11.459 15.834 11.459Z" stroke="#C707A8" stroke-width="1.5"/>
<path d="M6.66602 11.459H4.16602C3.13048 11.459 2.29102 12.2985 2.29102 13.334V15.834C2.29102 16.8695 3.13048 17.709 4.16602 17.709H6.66602C7.70155 17.709 8.54102 16.8695 8.54102 15.834V13.334C8.54102 12.2985 7.70155 11.459 6.66602 11.459Z" stroke="#C707A8" stroke-width="1.5"/>
</svg>
