<svg width="19" height="19" viewBox="0 0 19 19" fill="none" xmlns="http://www.w3.org/2000/svg">
<path d="M14.5098 16.1973H4.49023C2.03426 16.1973 0 14.1996 0 11.7441C0 10.6678 0.435033 9.63663 1.16126 8.8158C1.26888 5.4678 3.96948 2.80078 7.27344 2.80078C9.14015 2.80078 10.9014 3.69679 12.0614 5.15415C12.331 5.09381 12.5887 5.06445 12.8398 5.06445C14.5641 5.06445 16.0503 6.17391 16.5537 7.79875C18.0236 8.56138 19 10.0889 19 11.7441C19 14.1996 16.9657 16.1973 14.5098 16.1973Z" fill="#5558FF"/>
<path d="M7.83008 11.7441C6.60265 11.7441 5.60352 10.4955 5.60352 8.96094C5.60352 7.42635 6.60265 6.17773 7.83008 6.17773C9.05751 6.17773 10.0566 7.42635 10.0566 8.96094C10.0566 10.4955 9.05751 11.7441 7.83008 11.7441ZM7.83008 7.29102C7.22668 7.29102 6.7168 8.05584 6.7168 8.96094C6.7168 9.86604 7.22668 10.6309 7.83008 10.6309C8.43348 10.6309 8.94336 9.86604 8.94336 8.96094C8.94336 8.05584 8.43348 7.29102 7.83008 7.29102Z" fill="url(#paint0_linear_550_16631)"/>
<path d="M12.8398 13.9707H10.6133C10.3556 13.9707 10.1316 13.7935 10.0719 13.5423C10.0121 13.2912 10.1338 13.0319 10.3643 12.9161C11.1688 12.5128 12.2832 11.6871 12.2832 11.1875C12.2832 10.8804 12.0332 10.6309 11.7266 10.6309C11.42 10.6309 11.1699 10.8804 11.1699 11.1875C11.1699 11.4952 10.921 11.7441 10.6133 11.7441C10.3056 11.7441 10.0566 11.4952 10.0566 11.1875C10.0566 10.2667 10.8057 9.51758 11.7266 9.51758C12.6474 9.51758 13.3965 10.2667 13.3965 11.1875C13.3965 11.8186 12.9594 12.3959 12.443 12.8574H12.8398C13.1475 12.8574 13.3965 13.1064 13.3965 13.4141C13.3965 13.7217 13.1475 13.9707 12.8398 13.9707Z" fill="url(#paint1_linear_550_16631)"/>
<defs>
<linearGradient id="paint0_linear_550_16631" x1="7.83008" y1="11.7441" x2="7.83008" y2="6.17773" gradientUnits="userSpaceOnUse">
<stop stop-color="#ADDCFF"/>
<stop offset="0.5028" stop-color="#EAF6FF"/>
<stop offset="1" stop-color="#EAF6FF"/>
</linearGradient>
<linearGradient id="paint1_linear_550_16631" x1="11.7266" y1="13.9707" x2="11.7266" y2="9.51758" gradientUnits="userSpaceOnUse">
<stop stop-color="#ADDCFF"/>
<stop offset="0.5028" stop-color="#EAF6FF"/>
<stop offset="1" stop-color="#EAF6FF"/>
</linearGradient>
</defs>
</svg>
