<svg width="19" height="19" viewBox="0 0 19 19" fill="none" xmlns="http://www.w3.org/2000/svg">
<g clip-path="url(#clip0_550_16586)">
<path d="M16.1304 11.0254H14.542L12.8693 9.35262L13.0082 8.93585C13.3075 8.03799 13.0778 7.06446 12.4085 6.39519L11.8229 5.8096C11.4348 5.42148 10.9188 5.20773 10.3698 5.20773C10.1138 5.20773 9.87299 5.10802 9.69193 4.92692L9.32629 4.56132C9.1452 4.38023 9.04548 4.1395 9.04548 3.88337C9.04548 3.33448 8.83173 2.81844 8.44361 2.43035L7.63666 1.62344C7.50303 1.48978 7.30999 1.43441 7.12589 1.47697L5.09742 1.94511C4.99733 1.96819 4.90575 2.01896 4.83313 2.09158L0.387199 6.53747C0.13749 6.78714 0 7.11912 0 7.47222C0 7.82531 0.13749 8.15733 0.387199 8.40693L9.35817 17.3779C9.39851 17.4183 9.4446 17.4516 9.49443 17.4773C9.5698 17.5163 9.65545 17.5384 9.74622 17.5384H18.4519C18.7546 17.5384 19 17.293 19 16.9903V13.895C19 12.3127 17.7127 11.0254 16.1304 11.0254Z" fill="#FBD13D"/>
<path d="M10.5187 10.5742C10.2839 10.5742 10.0667 10.4221 9.99468 10.1859C9.90639 9.89635 10.0695 9.59009 10.3591 9.50177L13.5726 8.52201C13.8622 8.43376 14.1684 8.59689 14.2567 8.88646C14.345 9.17598 14.1818 9.48228 13.8923 9.57057L10.6788 10.5503C10.6255 10.5665 10.5716 10.5742 10.5187 10.5742Z" fill="#B3B3B3"/>
<path d="M11.839 11.8934C11.6042 11.8934 11.387 11.7413 11.315 11.5051C11.2267 11.2155 11.3898 10.9092 11.6794 10.821L14.4792 9.96733C14.7689 9.87905 15.075 10.0422 15.1633 10.3318C15.2516 10.6213 15.0885 10.9276 14.7989 11.0159L11.9991 11.8695C11.9458 11.8857 11.892 11.8934 11.839 11.8934Z" fill="#B3B3B3"/>
<path d="M9.74582 17.5395H3.65354C3.35084 17.5395 3.10547 17.2941 3.10547 16.9914C3.10547 16.6887 3.35087 16.4434 3.65354 16.4434H9.74586C10.0486 16.4434 10.2939 16.6888 10.2939 16.9914C10.2939 17.2941 10.0485 17.5395 9.74582 17.5395Z" fill="#B3B3B3"/>
<path d="M7.55245 15.3461H5.11447C4.81177 15.3461 4.56641 15.1007 4.56641 14.7981C4.56641 14.4954 4.81181 14.25 5.11447 14.25H7.55245C7.85515 14.25 8.10052 14.4954 8.10052 14.7981C8.10052 15.1007 7.85511 15.3461 7.55245 15.3461Z" fill="#B3B3B3"/>
<path d="M18.4513 14.5071H11.0448L2.11812 5.58046C2.01533 5.47766 1.87594 5.41992 1.73059 5.41992C1.58523 5.41992 1.44585 5.4777 1.34305 5.58046L0.386559 6.53695C-0.128853 7.05236 -0.128853 7.891 0.386559 8.40641L9.35753 17.3774C9.41761 17.4375 9.49016 17.4821 9.56913 17.5089C9.60275 17.5204 9.63785 17.5286 9.67407 17.5333C9.69704 17.5363 9.72035 17.5379 9.74372 17.5379C9.74439 17.5379 9.74491 17.5379 9.74554 17.5379H18.4513C18.754 17.5379 18.9994 17.2925 18.9994 16.9898V15.0553C18.9994 14.7525 18.754 14.5071 18.4513 14.5071Z" fill="#5C5C5C"/>
</g>
<defs>
<clipPath id="clip0_550_16586">
<rect width="19" height="19" fill="white"/>
</clipPath>
</defs>
</svg>
